<svg xmlns="http://www.w3.org/2000/svg" viewBox="0 0 985.65 254.85"><path d="M83,43.49s-39-1.65-46.26,7.28c0,0-8.6,16.85-8.93,31.39,0,0-3,17.52,8.93,23.8,0,0,8.59,8.92,33,8.59,0,0,24.46,1.32,34.37-5.62,0,0,8.27-2.31,8.27-17.51,0,0-1.66-32.39-9.26-40.65C103.2,50.77,99.24,43.16,83,43.49ZM90,99.68a102.49,102.49,0,0,0-17.18,2l-4.3.66-4.29-.66c-7.61,0-10.91-1.32-10.91-1.32-8.26-1-10.91-4.63-10.91-4.63-8.26-12.89,1-28.75,1-28.75,2.31-8.92,8.26-8.59,8.26-8.59,1.32-2.32,23.79-3,23.79-3,14.54-.66,19.5,7.27,19.5,7.27,4,4.63,5.62,30.74,5.62,30.74C98.91,98.69,90,99.68,90,99.68Zm83.29,42.63S169,91.09,160.05,73.24c0,0-7.6-24.46-25.78-23.8l-2-2.64S122,15.73,95.27,8.46c0,0-28.42-14.21-46.27-3.63,0,0-21.48,7.93-38.33,67.42,0,0-10.25,40.65-9.59,71.71,0,0-2.64,49.91.33,87.58l.33,14.54s3.31,7.6,10.58,7.93l1.32-1,37.68.33s5.28,0,5.61-4.29v-5s1-1.32.34-8.59v-5.29a283.37,283.37,0,0,0,.66-30.07s1.32-6.28,9.25-7.28c0,0,11.9-1.65,14.87,1.33,0,0,4.3,1.32,5.62,7.6L90,238.48s-2.31,11.24,4.3,12.89c0,0,3.63,5.29,8.26.66l47.26.33s6.28,2.32,6.61-4.62l-1.32-10.58-3.64-58.83S173.27,170.07,173.27,142.31Zm-31.73,94.85-2.31,1-31.4.33c-5.62-1-3.64-7.6-3.64-7.6l-.66-13.55a118.06,118.06,0,0,0-2-19.83l-1-9.58c-3.31-13.55-14.87-11.24-14.87-11.24A58.91,58.91,0,0,0,52,182.3c-9.26,5.62-7.93,17.85-7.93,17.85a14.71,14.71,0,0,0-.33,9.58c-3,5-.33,10.91-.33,10.91l-.34,13.55c-.33,5.61-5.61,3.63-5.61,3.63l-19.83.33c-5.95.66-4.63-7.93-4.63-7.93l.33-72.71c.66-32.39,7.6-69.4,7.6-69.4C26.53,46.47,49.66,21,49.66,21c9.26-12.56,36.69-.66,36.69-.66C118.74,30.61,124,61,124,61,130.63,82.16,137.24,145,137.24,145c1,4.3,4.3,89.57,4.3,89.57Zm8.92-76.34s-4.18-54-6.61-66.76c0,0-5.29-26.66-6.83-28.42,0,0,1.77-3.75,5.07,1.1,0,0,12.56,17.85,16.08,52.22,0,0,2.43,21.15,2.43,27.76C160.6,146.72,156,165.66,150.46,160.82Z"/><path d="M173.27,246.08s-2,5.95,2.64,7.93c0,0,7.6,2.32,10.91-1.65l1.32-6.94,2.31-17.18,16.19-102.45,10.58-70.73s1.65-4.62,3,.66l17.52,92.54,13.88,88.57,3.31,13.22s1.32,3.63,6.61,3.63l4.62.33s2-.33,4-4.95l6.28-47.92L286,126.78l11.57-74.69s1.32-11.24,3.3-5.62l4.63,44.28,8.26,66.1,5.95,59.49,4.63,33.38s.33,4,6.61,5c0,0,5.29,1.32,6.94-3.31l-3.64-38L321,102.65,310.75,23.34,309.1,9.79s-3.64-8.6-10.58-8.27c0,0-6.28,0-7.6,10.91L278.36,90.75,263.49,192.87l-.66,8.93s-1.32,11.23-3-5L248,123.47,230.77,40.85s.33-22.8-7.27-29.74c0,0,0-11.24-10.91-6.61a23.77,23.77,0,0,0-3.3,10.24L193.76,117.52,175.58,227.91Z"/><path d="M425.43,63.65s-7.6-42-24.13-55.52c0,0-17.18-14.54-31.4-3.3,0,0-16.19,16.85-18.17,51.88,0,0-4.3,61.47-2.65,74,0,0,.33,66.43,11.9,94.85,0,0,4.63,26.11,29.08,28.75,0,0,14.88,1.66,23.14-24.78,0,0,12.23-44,14.54-84.94C427.74,144.62,430.05,81.83,425.43,63.65Zm-13.22,89.9s-5.29,51.55-8.93,59.81c0,0-3.63,21.49-15.2,22.81,0,0-11.57,3.63-18.18-35.36,0,0-8.26-54.53-5.28-102.78s4-53.87,4-53.87,3.64-24.79,11.57-26.44c0,0,10.91-3.64,14.54,5.29,0,0,15.53,25.77,15.86,46.59C410.55,69.6,416.17,97,412.21,153.55Z"/><path d="M443.93,243.77s-1,5.29,0,7.6c0,0-.33,1.65,5,2.64,0,0,7.27,1.66,10.25-2l.33-3s-1.66-48.91-2-75.68-.33-105.76-.33-105.76V37.55s.33-4.63,2.32,3l30.4,119.64,8.59,38.33,11.24,42.3s2,12.56,6.94,13.55l8.26-.66s1.66,2,3-4l2.31-45.28s3.31-57.5,1.32-84.27c0,0-1.32-59.16-1.32-68.74,0,0,0-24.46,1-38,0,0,3.64-10.57-7.6-11.9,0,0-7.93-.33-7.27,17.52V56.71l2,32.06.33,28.75L518,202.46s-2.31,12.56-4.62-4l-12.23-52.21L484.25,74.56,467.4,17.39s-3-16.53-15.2-13.88c0,0-8.27,0-9.26,11.89V162.47l.66,41.64s-1,20.82.33,25.78Z"/><path d="M612.48,6.15s7.27,6.94-1,14.54c0,0,1.32,1.65-12.89-2,0,0-12.89-4.3-20.16,7.93,0,0-15.86,23.46-17.51,61.47,0,0-3.64,45-1,75.68,0,0,.33,44.62,11.57,61.8,0,0,6.28,16.2,28.09,5.95,0,0,9.26.33,13.22-49.9l.33-32.72s-.66-5,6.94-6.94l29.75-.33s11.56-.66,6.28,12.56c0,0-1.66,3.3-12.89,5.62l-15.21.33s1.33,49.24-7.6,69.4c0,0-9.25,23.13-30.73,25.12,0,0-25.12,0-33.38-25.45,0,0-11.57-24.46-10.91-73.7,0,0-1-55.19,3.31-88.24,0,0,4-32.72,18.84-52.88,0,0,6.94-14.87,31.39-12.89C598.93,1.52,609.51,2.18,612.48,6.15Z"/><path d="M766.49,27.3s-1.32-16.3.44-21.15c0,0,6.17-11.46,12.78,0l1.76,60.37s7,106.64,14.54,134.84c0,0,7.93,32.6,19.83,35.25,0,0,15.42,7,25.56-17.63,0,0,8.37-21.59,13.22-78l2.2-81.08s.44-54.2,5.73-55.52c0,0,7.49-4.41,9.25,6.61l-.88,45.82s-2.64,72.27-2.2,84.17c0,0-4.41,65.66-16.31,88.13,0,0-7.49,31.72-44.06,21.59,0,0-26.44-10.58-31.73-74,0,0-7.93-79.76-9.25-101.79Z"/><path d="M952.44,3.51S975.79,11.88,972.71,26c0,0-6.17,9.69-12.78,2.64,0,0-10.13-15.86-36.13-10.57,0,0-15.87,6.17-22,33.05,0,0-11.46,34.81,18.5,54.64,0,0,57.29,26.43,64.78,68.3,0,0,8.37,54.64-37.46,76.23,0,0-45.38,19.39-59.92-30.85,0,0-8.82-49.35-.89-62.57,0,0,8.38-8.37,11.46,7.05,0,0-7,56,16.74,70.06,0,0,24.24,15.87,47.59-15.42,0,0,23.8-39.22-5.72-66.1,0,0-17.63-19.82-37.9-28.2,0,0-39.66-14.1-32.17-67.42,0,0,3.53-36.13,27.32-52.43C914.1,4.39,923.36-4.87,952.44,3.51Z"/></svg>